<svg version="1" xmlns="http://www.w3.org/2000/svg" width="921.333" height="902.667" viewBox="0 0 691.000000 677.000000"><path d="M325.5 37c-74 5.7-140.8 36.3-192.5 88C29.8 228.2 15 389.6 97.8 510c62.6 90.9 170.4 140.5 280.7 128.9 92.6-9.7 176.3-62.6 225.2-142.1 40.8-66.3 54.3-143.8 38.4-221-11.7-56.6-41.3-110.6-83-151.7C510 75.8 450.2 46.8 382.5 38.6c-15.6-1.9-43.1-2.7-57-1.6zM220.4 97.8c.6.6 2.7 1.3 4.6 1.7 4.5.9 12.9 3.9 18.3 6.6 5.1 2.6 14.7 9.6 16.5 12 .7 1 1.8 2.4 2.5 3.1 5.7 6.2 9.5 16.3 10.3 27.6.8 10-.3 11.6-7.4 11.5-6.7-.2-17.3-2.9-25-6.4-3.5-1.6-6.6-2.9-7-2.9-1.1 0-13.6-11-14.6-12.9-.5-.9-1.2-1.8-1.6-2.1-.3-.3-1.8-3-3.3-6-6.8-14.2-8.7-29.2-4.1-31.5 2.9-1.4 9.3-1.8 10.8-.7zm103.7 20.4c2.8 3.4 2.2 12.2-1.4 19.8-2.6 5.6-10.6 13.6-16.4 16.4-7.8 3.9-9 4.3-14.8 5.5-4 .8-5.6.6-8.4-.6l-3.4-1.6.6-6.4c.8-8.5 5.6-18.3 11.1-22.7 5.2-4.2 8.4-6 17.1-9.6 8.7-3.6 13-3.8 15.6-.8zM157.5 167c13.9 3.7 22.7 9 33.8 20.3 19.3 19.6 25.9 34 27.4 60.4 1.3 24.2-5.4 43.8-20.7 60.5-17.5 19.2-35.2 25.2-61.9 21.3-12.2-1.8-12.2-1.9-15.6-5.8-2.3-2.7-3.6-5.4-4.1-8.5-.4-2.6-.4-19 0-36.7.3-17.6.9-50.1 1.3-72.2l.6-40.3 3.6-.6c2-.3 4.1-.7 4.6-1 2.6-1.1 23.7.7 31 2.6zm146.6 1.3c6.4 7.5 31.1 66.5 47.9 114.7 3.2 9.1 6 15.8 6.3 15 .3-.8 1.9-26.5 3.6-57 1.8-30.5 3.4-58.8 3.8-62.7l.6-7.3 3.6-1c2-.6 10.1-1.4 18.2-1.7l14.5-.6 3.8 4.4 3.8 4.4-.7 15.5c-.3 8.5-1.3 28.1-2 43.5-.8 15.4-1.5 28.3-1.5 28.7 0 .5 5.4.7 12.1.5l12-.2 4 4.5c7.2 8.1 7.4 8.5 8 20.4.4 6.1 1 15.8 1.4 21.6.8 11.8.4 12.9-6.5 16.6-3.1 1.6-7 1.9-32.5 2.5-15.9.4-31.5 1-34.5 1.4-5.5.7-5.5.6-9.4-3.4l-3.9-4 .7-7c.3-3.9.4-7.1.1-7.1-.3 0-8.8 5-19 11l-18.6 11-4-4.2c-2.7-2.9-7.3-10.6-13.5-23.1l-9.5-18.8-3.7.6c-8 1.3-9.1 1.7-9.6 3.1-.3.7-1.2 6.9-2.1 13.6-1.6 11.9-3.9 23.3-5.3 25.5-.5.8-3.6.6-11-.7-17.4-3.1-27-7.1-33.5-13.7l-3.7-3.9 5-39c7.1-55.5 9.2-68 15.1-92.7l3.1-12.7 10.6-.1c5.9-.1 15.9-.5 22.2-.9 21.6-1.3 20-1.5 24.1 3.3zm224 0c3.6 4.2 9.7 17.4 23.4 50.2 12.5 30.2 33.7 88.8 32.5 89.8-.3.2-9.4 5.6-20.3 12L543.9 332l-4-4.2c-2.7-2.9-7.3-10.6-13.5-23.1l-9.5-18.8-3.7.6c-8 1.3-9.1 1.7-9.6 3.1-.3.7-1.2 6.9-2.1 13.6-1.6 11.9-3.9 23.3-5.3 25.5-.5.8-3.6.6-11-.7-17.4-3.1-27-7.1-33.5-13.7l-3.7-3.9 5-39c7.1-55.5 9.2-68 15.1-92.7l3.1-12.7 10.6-.1c5.9-.1 15.9-.5 22.2-.9 21.6-1.3 20-1.5 24.1 3.3zM176.4 349.6c6.1 6.9 7.5 12.5 7.6 28.6v13.7l-4.2.5c-2.4.4-10.4 1.3-17.8 2.1-16.1 1.8-16.6 2-17.4 4.8-1.1 4.2-.8 4.5 6.4 4.9 6.8.4 7.2.5 11.4 4.8l4.4 4.5 1.1 12.2c.6 6.7 1.1 14.8 1.1 18.2 0 9.1-2.5 10.8-17.6 11.8l-9.3.6.6 21.8c.5 17.5.3 22.1-.7 23.4-3.8 4.5-15.8 8-31 9.1l-9.5.6-3.9-4.1-3.9-4 1.1-44.8c.7-24.6 1.5-59 1.8-76.5l.7-31.6 2.7-.6c3-.6 28-3.4 35-3.9 2.5-.2 11.9-.4 21-.4l16.5-.1 3.9 4.4zm89.7-.3c6.4 7.4 30.6 65.4 48 114.7l5.8 16.5.1-12c0-13.8 1.2-31.6 4.1-60 1.1-11 2.2-26.1 2.6-33.5.3-7.4 1.1-14.1 1.7-14.9 2-2.5 18.9-10 27.6-12.1 11.9-2.9 29.4-3.6 38.9-1.6 14.6 3.1 23 8.7 33.9 22.4 6.1 7.7 7.6 14 6.9 27.7-.7 12.7-2.5 20.4-6.8 29.3-3 6.2-11.8 16.2-18.8 21.5l-3.5 2.5 9.5 11.9c14.8 18.3 19.6 26.4 21.3 35.4l.6 3.7-7.7 2c-18.5 5-23.7 6.1-31.1 7.2l-7.9 1.2-4.2-4.4c-2.4-2.5-6.1-8.4-8.9-14.2l-4.7-9.8-.6 9.3c-.7 10-3 17.4-5.9 18.9-1.1.6-4.2.7-7.9.2-3.9-.6-6.1-.5-6.1.1 0 1.5-14.9.2-19.4-1.7-5.6-2.4-13.6-11.3-13.6-15.4 0-1.7-.2-3.2-.5-3.2s-8.8 5-19 11l-18.6 11-4-4.2c-2.7-2.9-7.3-10.6-13.5-23.1l-9.5-18.8-3.7.6c-8 1.3-9.1 1.7-9.6 3.1-.3.7-1.2 6.9-2.1 13.6-1.6 11.9-3.9 23.3-5.3 25.5-.5.8-3.6.6-11-.7-17.4-3.1-27-7.1-33.5-13.7l-3.7-3.9 5-39c7.1-55.5 9.2-68 15.1-92.7l3.1-12.7 10.6-.1c5.9-.1 15.9-.5 22.2-.9 21.6-1.3 20-1.5 24.1 3.3zm316.2 0c4.1 5 4.8 8.2 7.1 31.7 3.4 34.4 9 122.1 7.8 123.1-2.4 2.2-9.2 2.9-26.4 2.9h-18.9l-3.2-3.6c-1.8-2-3.7-5.3-4.3-7.2l-1-3.6-1.3 6.2c-.8 3.3-2 6.3-2.7 6.6-1.7.7-14.9 2.2-25.9 3.1l-8 .6-3.6-3.8c-2-2.1-4.1-5.2-4.7-6.8-1-2.8-1-2.7-1.1 2.3-.1 4.3-.6 5.8-2.7 7.9-2.4 2.4-3 2.5-9.2 1.9-3.7-.3-12.3-.6-19-.6h-12.4l-4.9-5.1-4.9-5.1 1.5-9.1c1.9-12.3 3.2-31.5 4.5-64.7 1.5-38.9 3.2-53.6 7.3-65.5 1.2-3.6 1.9-4.2 6.8-5.8 3-1 12-2.8 20-3.9l14.6-2.1 3.6 3.9c3.3 3.6 4 5.6 8.9 24.9l5.3 21 1.1-7c.7-3.9 2.4-14.9 3.9-24.6 1.5-9.7 3.1-18.2 3.5-18.9.8-1.3 16.6-2.3 46.1-2.8l8.7-.2 3.5 4.3z"/><path d="M124.9 169.6l-2.6.5-.6 38.7c-.4 21.3-1 54.1-1.3 72.8l-.7 34.2 2.9.6c19.7 4 31.6 3.2 45.9-3.2 7.1-3.2 8.6-4.3 18.6-14.2 11.3-11.1 19-25.8 20.6-39.2.3-2.6.9-4.8 1.2-4.8.7 0-.3-19.4-1.4-26-2.6-16.7-9.8-30.5-21.4-41.3-12.4-11.5-28.3-17.5-47.6-18.2-6-.2-12.2-.1-13.6.1zm36.9 43c8.9 4.4 18.2 18.6 18.2 27.8 0 7.5-13.3 27.1-21.1 31.1-1.5.8-4.9 1.5-7.5 1.5h-4.6l.4-29.8c.3-16.3.8-30.5 1.3-31.5 1.1-2.6 7.2-2.2 13.3.9z"/><path d="M158.6 227.1c-.3 3.4-.6 13.9-.6 23.2v17.1l3.1-3c4-3.8 11.3-14.8 13-19.7 2.5-7-2.9-19.4-9.6-22.3-1.9-.8-3.8-1.4-4.3-1.4s-1.2 2.8-1.6 6.1zm107.3-57.4l-15.5.3-3.2 13.3c-4.6 19.2-7.6 38.2-13.6 84.1l-5.2 40.9 5.4 2.5c7.1 3.2 28.4 7.5 29.4 5.9.8-1.3 2.1-8.7 4.3-24.2 1.9-13.9 2.4-15 7.7-16.3 2.4-.6 7.3-1.4 11.1-1.8 5.4-.5 6.7-.4 6.7.7 0 1.8 20.7 43.9 21.5 43.9.4 0 8.3-4.5 17.7-10.1 16.3-9.7 17-10.2 16.3-12.7-3.2-12.8-27.7-76.6-42-109.5l-7.7-17.7-8.7.2c-4.7.1-15.6.4-24.2.5zm20.2 69.6c2.9 8.3 2.5 8.7-7.8 8.7-8.7 0-8.2 1.5-5.3-18.2 1.1-7.3 2-13.8 2.1-14.3.1-1.6 8.5 16.4 11 23.8zm90.2-66.4c-2.8.4-5.5 1-5.9 1.4-.8.8-9.8 144.7-9.1 145.4.3.2 6.2-.1 13.3-.7 7.1-.6 19-.7 26.4-.4 16.1.8 26.7-.6 30.7-4l2.6-2.3-1.7-15.6c-1-8.6-1.5-16.1-1.1-16.6.9-1.6-.5-8-2.2-9.6-1.1-1.2-4.7-1.5-16.6-1.5-8.4 0-15.8-.4-16.6-.9-1.2-.8-1.3-3.5-.7-15.8.3-8.1 1.1-18.9 1.6-23.8.6-5 1.3-19.7 1.7-32.8l.6-23.7-8.9.1c-4.9.1-11.2.5-14.1.8zm113.6-3.2l-15.5.3-3.2 13.3c-4.6 19.2-7.6 38.2-13.6 84.1l-5.2 40.9 5.4 2.5c7.1 3.2 28.4 7.5 29.4 5.9.8-1.3 2.1-8.7 4.3-24.2 1.9-13.9 2.4-15 7.7-16.3 2.4-.6 7.3-1.4 11.1-1.8 5.4-.5 6.7-.4 6.7.7 0 1.8 20.7 43.9 21.5 43.9.4 0 8.3-4.5 17.7-10.1 16.3-9.7 17-10.2 16.3-12.7-3.2-12.8-27.7-76.6-42-109.5l-7.7-17.7-8.7.2c-4.7.1-15.6.4-24.2.5zm20.2 69.6c2.9 8.3 2.5 8.7-7.8 8.7-8.7 0-8.2 1.5-5.3-18.2 1.1-7.3 2-13.8 2.1-14.3.1-1.6 8.5 16.4 11 23.8zM124.5 351.1c-4.4.4-11.6 1.3-16.1 1.9l-8.1 1.2-.6 48.1c-.4 26.5-1 59.1-1.4 72.4l-.6 24.3h4.9c6.4 0 22.1-3.3 26.4-5.5l3.3-1.7-.5-23.3c-.6-27.1-1.9-24.5 12-24.5 9.9 0 15.2-1.8 15.2-5.1 0-1.3-.5-8.5-1.2-16.1-.9-11.5-1.4-13.8-2.7-13.8-3.1 0-18.4-1.9-20.4-2.6-1.8-.6-1.9-1.2-1.5-8.9.3-4.5 1-9.1 1.6-10.2 1.2-2.1 7.9-3.5 22.7-4.8 3.9-.3 9.2-.8 11.8-1.1l4.9-.6-.4-12.7c-.3-6.9-1-13.8-1.6-15.4L171 350l-19.2.1c-10.6.1-22.9.5-27.3 1zm103.4-.4l-15.5.3-3.2 13.3c-4.6 19.2-7.6 38.2-13.6 84.1l-5.2 40.9 5.4 2.5c7.1 3.2 28.4 7.5 29.4 5.9.8-1.3 2.1-8.7 4.3-24.2 1.9-13.9 2.4-15 7.7-16.3 2.4-.6 7.3-1.4 11.1-1.8 5.4-.5 6.7-.4 6.7.7 0 1.8 20.7 43.9 21.5 43.9.4 0 8.3-4.5 17.7-10.1 16.3-9.7 17-10.2 16.3-12.7-3.2-12.8-27.7-76.6-42-109.5l-7.7-17.7-8.7.2c-4.7.1-15.6.4-24.2.5zm20.2 69.6c2.9 8.3 2.5 8.7-7.8 8.7-8.7 0-8.2 1.5-5.3-18.2 1.1-7.3 2-13.8 2.1-14.3.1-1.6 8.5 16.4 11 23.8zm116.4-69.2c-9 1.3-16.1 3.6-25.1 8l-8.1 4-.6 12.7c-.4 7-1.5 21.7-2.6 32.7-3.2 32-4.1 46.7-4.1 68.1v20.2l4 1.6c3 1.2 7.5 1.6 17.5 1.6h13.4l1.1-3.8c.7-2 1.4-12.4 1.7-23.1l.6-19.3 2.9 4.6c1.6 2.6 6.8 12.8 11.5 22.8l8.7 18 5.6-.6c8.8-1 35.2-7.9 35.7-9.4 1.1-2.6-6.9-16-16.8-28.2-5.5-6.9-11.4-14.1-13-16.1l-2.8-3.6 5.3-3.7c8.3-5.7 17.3-15.6 20.6-22.8 5-10.7 7.4-30.4 4.9-40.2-2.6-10.4-14.8-20-29.6-23.1-7.4-1.6-21.3-1.8-30.8-.4zm16.3 34.3c9.8 5.2 9.3 18.2-1 25.6-3.9 2.9-11.5 5.7-12.5 4.6-1-1 1.8-30.1 3-30.8 2-1.2 7.6-.9 10.5.6z"/><path d="M379 398.2c0 1.8-.3 4.4-.6 5.8l-.6 2.5 2.6-2.8c3.3-3.5 3.6-8.7.6-8.7-1.6 0-2 .7-2 3.2zm160.8-47.5l-12.7.4-1 5.2c-.6 2.9-2.2 13.5-3.6 23.7-2.6 18.3-5.2 30.6-7.8 36.9-1.4 3.3-1.5 3-7.5-18.5-3.4-12.1-7.4-27-8.9-33.2-2.4-9.7-3-11.2-4.8-11.2-4.3.1-23.2 3.1-28.2 4.5l-5.1 1.5-2.1 8.8c-2.7 11.7-3.9 24.6-5.1 57.2-1.2 32.6-2.7 54.6-4.4 65.2l-1.2 7.6 18.2-.1c10.7-.1 18.7-.6 19.3-1.2.5-.6 1.1-12.9 1.3-29.2.1-15.5.6-27.9 1-27.5 1.5 1.6 5 14.5 7.8 28.2 1.5 8 3.6 17.5 4.5 21.2 1.7 6.8 1.8 6.8 5.2 6.8 5.6 0 22.6-2 24.9-3 1.3-.5 2.3-2.1 2.7-4.2.3-1.8 2.4-11.2 4.7-20.8 2.3-9.6 4.2-18.7 4.2-20.3.2-6.1 1.3-.6 3.9 20.5 1.6 12.3 3.1 23.3 3.4 24.5.5 2.3.7 2.3 16.8 2.2 8.9-.1 17.3-.4 18.7-.8l2.5-.7-.2-12.5c-.4-20.5-6.9-111.4-9.1-126.4l-.7-5h-12c-6.6-.1-17.7.1-24.7.2z"/></svg>