<?xml version="1.0" standalone="no"?>
<!DOCTYPE svg PUBLIC "-//W3C//DTD SVG 20010904//EN"
 "http://www.w3.org/TR/2001/REC-SVG-20010904/DTD/svg10.dtd">
<svg version="1.0" xmlns="http://www.w3.org/2000/svg"
 width="691.000000pt" height="677.000000pt" viewBox="0 0 691.000000 677.000000"
 preserveAspectRatio="xMidYMid meet">

<g transform="translate(0.000000,677.000000) scale(0.100000,-0.100000)"
fill="#000000" stroke="none">
<path d="M3255 6400 c-740 -57 -1408 -363 -1925 -880 -1032 -1032 -1180 -2646
-352 -3850 626 -909 1704 -1405 2807 -1289 926 97 1763 626 2252 1421 408 663
543 1438 384 2210 -117 566 -413 1106 -830 1517 -491 483 -1089 773 -1766 855
-156 19 -431 27 -570 16z m-1051 -608 c6 -6 27 -13 46 -17 45 -9 129 -39 183
-66 51 -26 147 -96 165 -120 7 -10 18 -24 25 -31 57 -62 95 -163 103 -276 8
-100 -3 -116 -74 -115 -67 2 -173 29 -250 64 -35 16 -66 29 -70 29 -11 0 -136
110 -146 129 -5 9 -12 18 -16 21 -3 3 -18 30 -33 60 -68 142 -87 292 -41 315
29 14 93 18 108 7z m1037 -204 c28 -34 22 -122 -14 -198 -26 -56 -106 -136
-164 -164 -78 -39 -90 -43 -148 -55 -40 -8 -56 -6 -84 6 l-34 16 6 64 c8 85
56 183 111 227 52 42 84 60 171 96 87 36 130 38 156 8z m-1666 -488 c139 -37
227 -90 338 -203 193 -196 259 -340 274 -604 13 -242 -54 -438 -207 -605 -175
-192 -352 -252 -619 -213 -122 18 -122 19 -156 58 -23 27 -36 54 -41 85 -4 26
-4 190 0 367 3 176 9 501 13 722 l6 403 36 6 c20 3 41 7 46 10 26 11 237 -7
310 -26z m1466 -13 c64 -75 311 -665 479 -1147 32 -91 60 -158 63 -150 3 8 19
265 36 570 18 305 34 588 38 627 l6 73 36 10 c20 6 101 14 182 17 l145 6 38
-44 38 -44 -7 -155 c-3 -85 -13 -281 -20 -435 -8 -154 -15 -283 -15 -287 0 -5
54 -7 121 -5 l120 2 40 -45 c72 -81 74 -85 80 -204 4 -61 10 -158 14 -216 8
-118 4 -129 -65 -166 -31 -16 -70 -19 -325 -25 -159 -4 -315 -10 -345 -14 -55
-7 -55 -6 -94 34 l-39 40 7 70 c3 39 4 71 1 71 -3 0 -88 -50 -190 -110 l-186
-110 -40 42 c-27 29 -73 106 -135 231 l-95 188 -37 -6 c-80 -13 -91 -17 -96
-31 -3 -7 -12 -69 -21 -136 -16 -119 -39 -233 -53 -255 -5 -8 -36 -6 -110 7
-174 31 -270 71 -335 137 l-37 39 50 390 c71 555 92 680 151 927 l31 127 106
1 c59 1 159 5 222 9 216 13 200 15 241 -33z m2240 0 c36 -42 97 -174 234 -502
125 -302 337 -888 325 -898 -3 -2 -94 -56 -203 -120 l-198 -117 -40 42 c-27
29 -73 106 -135 231 l-95 188 -37 -6 c-80 -13 -91 -17 -96 -31 -3 -7 -12 -69
-21 -136 -16 -119 -39 -233 -53 -255 -5 -8 -36 -6 -110 7 -174 31 -270 71
-335 137 l-37 39 50 390 c71 555 92 680 151 927 l31 127 106 1 c59 1 159 5
222 9 216 13 200 15 241 -33z m-3517 -1813 c61 -69 75 -125 76 -286 l0 -137
-42 -5 c-24 -4 -104 -13 -178 -21 -161 -18 -166 -20 -174 -48 -11 -42 -8 -45
64 -49 68 -4 72 -5 114 -48 l44 -45 11 -122 c6 -67 11 -148 11 -182 0 -91 -25
-108 -176 -118 l-93 -6 6 -218 c5 -175 3 -221 -7 -234 -38 -45 -158 -80 -310
-91 l-95 -6 -39 41 -39 40 11 448 c7 246 15 590 18 765 l7 316 27 6 c30 6 280
34 350 39 25 2 119 4 210 4 l165 1 39 -44z m897 3 c64 -74 306 -654 480 -1147
l58 -165 1 120 c0 138 12 316 41 600 11 110 22 261 26 335 3 74 11 141 17 149
20 25 189 100 276 121 119 29 294 36 389 16 146 -31 230 -87 339 -224 61 -77
76 -140 69 -277 -7 -127 -25 -204 -68 -293 -30 -62 -118 -162 -188 -215 l-35
-25 95 -119 c148 -183 196 -264 213 -354 l6 -37 -77 -20 c-185 -50 -237 -61
-311 -72 l-79 -12 -42 44 c-24 25 -61 84 -89 142 l-47 98 -6 -93 c-7 -100 -30
-174 -59 -189 -11 -6 -42 -7 -79 -2 -39 6 -61 5 -61 -1 0 -15 -149 -2 -194 17
-56 24 -136 113 -136 154 0 17 -2 32 -5 32 -3 0 -88 -50 -190 -110 l-186 -110
-40 42 c-27 29 -73 106 -135 231 l-95 188 -37 -6 c-80 -13 -91 -17 -96 -31 -3
-7 -12 -69 -21 -136 -16 -119 -39 -233 -53 -255 -5 -8 -36 -6 -110 7 -174 31
-270 71 -335 137 l-37 39 50 390 c71 555 92 680 151 927 l31 127 106 1 c59 1
159 5 222 9 216 13 200 15 241 -33z m3162 0 c41 -50 48 -82 71 -317 34 -344
90 -1221 78 -1231 -24 -22 -92 -29 -264 -29 l-189 0 -32 36 c-18 20 -37 53
-43 72 l-10 36 -13 -62 c-8 -33 -20 -63 -27 -66 -17 -7 -149 -22 -259 -31
l-80 -6 -36 38 c-20 21 -41 52 -47 68 -10 28 -10 27 -11 -23 -1 -43 -6 -58
-27 -79 -24 -24 -30 -25 -92 -19 -37 3 -123 6 -190 6 l-124 0 -49 51 -49 51
15 91 c19 123 32 315 45 647 15 389 32 536 73 655 12 36 19 42 68 58 30 10
120 28 200 39 l146 21 36 -39 c33 -36 40 -56 89 -249 l53 -210 11 70 c7 39 24
149 39 246 15 97 31 182 35 189 8 13 166 23 461 28 l87 2 35 -43z"/>
<path d="M1249 5074 l-26 -5 -6 -387 c-4 -213 -10 -541 -13 -728 l-7 -342 29
-6 c197 -40 316 -32 459 32 71 32 86 43 186 142 113 111 190 258 206 392 3 26
9 48 12 48 7 0 -3 194 -14 260 -26 167 -98 305 -214 413 -124 115 -283 175
-476 182 -60 2 -122 1 -136 -1z m369 -430 c89 -44 182 -186 182 -278 0 -75
-133 -271 -211 -311 -15 -8 -49 -15 -75 -15 l-46 0 4 298 c3 163 8 305 13 315
11 26 72 22 133 -9z"/>
<path d="M1586 4499 c-3 -34 -6 -139 -6 -232 l0 -171 31 30 c40 38 113 148
130 197 25 70 -29 194 -96 223 -19 8 -38 14 -43 14 -5 0 -12 -28 -16 -61z"/>
<path d="M2659 5073 l-155 -3 -32 -133 c-46 -192 -76 -382 -136 -841 l-52
-409 54 -25 c71 -32 284 -75 294 -59 8 13 21 87 43 242 19 139 24 150 77 163
24 6 73 14 111 18 54 5 67 4 67 -7 0 -18 207 -439 215 -439 4 0 83 45 177 101
163 97 170 102 163 127 -32 128 -277 766 -420 1095 l-77 177 -87 -2 c-47 -1
-156 -4 -242 -5z m202 -696 c29 -83 25 -87 -78 -87 -87 0 -82 -15 -53 182 11
73 20 138 21 143 1 16 85 -164 110 -238z"/>
<path d="M3763 5041 c-28 -4 -55 -10 -59 -14 -8 -8 -98 -1447 -91 -1454 3 -2
62 1 133 7 71 6 190 7 264 4 161 -8 267 6 307 40 l26 23 -17 156 c-10 86 -15
161 -11 166 9 16 -5 80 -22 96 -11 12 -47 15 -166 15 -84 0 -158 4 -166 9 -12
8 -13 35 -7 158 3 81 11 189 16 238 6 50 13 197 17 328 l6 237 -89 -1 c-49 -1
-112 -5 -141 -8z"/>
<path d="M4899 5073 l-155 -3 -32 -133 c-46 -192 -76 -382 -136 -841 l-52
-409 54 -25 c71 -32 284 -75 294 -59 8 13 21 87 43 242 19 139 24 150 77 163
24 6 73 14 111 18 54 5 67 4 67 -7 0 -18 207 -439 215 -439 4 0 83 45 177 101
163 97 170 102 163 127 -32 128 -277 766 -420 1095 l-77 177 -87 -2 c-47 -1
-156 -4 -242 -5z m202 -696 c29 -83 25 -87 -78 -87 -87 0 -82 -15 -53 182 11
73 20 138 21 143 1 16 85 -164 110 -238z"/>
<path d="M1245 3259 c-44 -4 -116 -13 -161 -19 l-81 -12 -6 -481 c-4 -265 -10
-591 -14 -724 l-6 -243 49 0 c64 0 221 33 264 55 l33 17 -5 233 c-6 271 -19
245 120 245 99 0 152 18 152 51 0 13 -5 85 -12 161 -9 115 -14 138 -27 138
-31 0 -184 19 -204 26 -18 6 -19 12 -15 89 3 45 10 91 16 102 12 21 79 35 227
48 39 3 92 8 118 11 l49 6 -4 127 c-3 69 -10 138 -16 154 l-12 27 -192 -1
c-106 -1 -229 -5 -273 -10z"/>
<path d="M2279 3263 l-155 -3 -32 -133 c-46 -192 -76 -382 -136 -841 l-52
-409 54 -25 c71 -32 284 -75 294 -59 8 13 21 87 43 242 19 139 24 150 77 163
24 6 73 14 111 18 54 5 67 4 67 -7 0 -18 207 -439 215 -439 4 0 83 45 177 101
163 97 170 102 163 127 -32 128 -277 766 -420 1095 l-77 177 -87 -2 c-47 -1
-156 -4 -242 -5z m202 -696 c29 -83 25 -87 -78 -87 -87 0 -82 -15 -53 182 11
73 20 138 21 143 1 16 85 -164 110 -238z"/>
<path d="M3645 3259 c-90 -13 -161 -36 -251 -80 l-81 -40 -6 -127 c-4 -70 -15
-217 -26 -327 -32 -320 -41 -467 -41 -681 l0 -202 40 -16 c30 -12 75 -16 175
-16 l134 0 11 38 c7 20 14 124 17 231 l6 193 29 -46 c16 -26 68 -128 115 -228
l87 -180 56 6 c88 10 352 79 357 94 11 26 -69 160 -168 282 -55 69 -114 141
-130 161 l-28 36 53 37 c83 57 173 156 206 228 50 107 74 304 49 402 -26 104
-148 200 -296 231 -74 16 -213 18 -308 4z m163 -343 c98 -52 93 -182 -10 -256
-39 -29 -115 -57 -125 -46 -10 10 18 301 30 308 20 12 76 9 105 -6z"/>
<path d="M3790 2788 c0 -18 -3 -44 -6 -58 l-6 -25 26 28 c33 35 36 87 6 87
-16 0 -20 -7 -20 -32z"/>
<path d="M5398 3263 l-127 -4 -10 -52 c-6 -29 -22 -135 -36 -237 -26 -183 -52
-306 -78 -369 -14 -33 -15 -30 -75 185 -34 121 -74 270 -89 332 -24 97 -30
112 -48 112 -43 -1 -232 -31 -282 -45 l-51 -15 -21 -88 c-27 -117 -39 -246
-51 -572 -12 -326 -27 -546 -44 -652 l-12 -76 182 1 c107 1 187 6 193 12 5 6
11 129 13 292 1 155 6 279 10 275 15 -16 50 -145 78 -282 15 -80 36 -175 45
-212 17 -68 18 -68 52 -68 56 0 226 20 249 30 13 5 23 21 27 42 3 18 24 112
47 208 23 96 42 187 42 203 2 61 13 6 39 -205 16 -123 31 -233 34 -245 5 -23
7 -23 168 -22 89 1 173 4 187 8 l25 7 -2 125 c-4 205 -69 1114 -91 1264 l-7
50 -120 0 c-66 1 -177 -1 -247 -2z"/>
</g>
</svg>
